<?xml version="1.0" encoding="UTF-8"?>
<svg data-bbox="0 0 646.67 288.1" viewBox="0 0 646.65 288.1" xmlns="http://www.w3.org/2000/svg" data-type="ugc">
    <g>
        <defs>
            <linearGradient gradientUnits="userSpaceOnUse" y2="314.03" x2="265.8" y1="-50.74" x1="-137.98" id="5d8886ee-cdaf-4dc2-979c-6ef94558955c">
                <stop stop-color="#a29a89" offset="0"/>
                <stop stop-color="#b6aa9c" offset=".29"/>
                <stop stop-color="#c1b3a7" offset=".52"/>
                <stop stop-color="#b8ac9e" offset=".71"/>
                <stop stop-color="#a29a89" offset="1"/>
            </linearGradient>
        </defs>
        <g>
            <path d="m0 33.03 99.83 53.95v96.9H55.46v-70.89L0 83.01zM44.37 120 0 96.43v137.72l99.83 53.95v-49.98l-55.46-29.97v-88.14ZM55.46 0v49.98l55.46 29.97v72.13h44.37V53.95z" fill="url(#5d8886ee-cdaf-4dc2-979c-6ef94558955c)"/>
            <path d="M275.57 101.19c-1.79-.61-3.69-.04-4.84 1.46l-23.29 30.31-23.29-30.31c-1.16-1.5-3.06-2.08-4.84-1.46-1.79.61-2.95 2.22-2.95 4.11v34.79c0 2.39 1.95 4.34 4.34 4.34s4.34-1.95 4.34-4.34v-22.01l18.95 24.66c.84 1.09 2.06 1.69 3.44 1.69s2.6-.6 3.44-1.69l18.95-24.66v22.01c0 2.39 1.95 4.34 4.34 4.34s4.34-1.95 4.34-4.34V105.3c0-1.89-1.16-3.5-2.94-4.11Z" fill="#4c4c50"/>
            <path d="M338.3 100.95h-25.88c-9.01 0-16.33 7.33-16.33 16.33v10.8c0 9.01 7.33 16.33 16.33 16.33h25.88c9.01 0 16.33-7.33 16.33-16.33v-10.8c0-9.01-7.33-16.33-16.33-16.33m-33.56 16.34c0-4.23 3.44-7.67 7.67-7.67h25.88c4.23 0 7.67 3.44 7.67 7.67v10.8c0 4.23-3.44 7.67-7.67 7.67h-25.88c-4.23 0-7.67-3.44-7.67-7.67z" fill="#4c4c50"/>
            <path d="M412.39 100.95h-35.86c-2.39 0-4.34 1.95-4.34 4.34v34.83c0 2.39 1.95 4.34 4.34 4.34h35.86c9.02 0 16.35-7.34 16.35-16.36v-10.8c0-9.02-7.34-16.35-16.35-16.35m-31.51 8.69h31.51c4.23 0 7.67 3.44 7.67 7.67v10.8c0 4.23-3.44 7.67-7.67 7.67h-31.51v-26.15Z" fill="#4c4c50"/>
            <path d="M497.83 128.76a4.34 4.34 0 0 0-3.32-.03 4.27 4.27 0 0 0-2.37 2.33 7.8 7.8 0 0 1-1.65 2.44c-.35.35-.74.67-1.15.94-.4.28-.84.51-1.3.71s-.94.35-1.43.45c-.51.11-1.03.16-1.54.16H462.7c-4.23 0-7.67-3.44-7.67-7.67v-10.8c0-4.23 3.44-7.67 7.67-7.67h22.37c.51 0 1.03.05 1.54.16.49.1.97.25 1.43.45.46.19.89.43 1.3.71s.8.6 1.15.95c.35.34.66.73.94 1.14.27.4.51.84.71 1.3a4.34 4.34 0 0 0 5.69 2.3c2.2-.94 3.23-3.49 2.3-5.69a16.5 16.5 0 0 0-1.51-2.78 16.6 16.6 0 0 0-4.41-4.41c-.88-.59-1.81-1.1-2.78-1.51-.99-.42-2.03-.74-3.07-.96a16.5 16.5 0 0 0-3.29-.33H462.7c-9.02 0-16.36 7.34-16.36 16.35v10.8c0 9.02 7.34 16.35 16.36 16.35h22.37c1.11 0 2.21-.11 3.29-.33 1.05-.22 2.08-.54 3.07-.96.96-.41 1.9-.92 2.78-1.51.85-.58 1.67-1.25 2.42-2 .73-.73 1.4-1.54 2-2.42.59-.88 1.1-1.81 1.51-2.78.45-1.07.46-2.25.02-3.32a4.3 4.3 0 0 0-2.33-2.37" fill="#4c4c50"/>
            <path d="M560.6 100.95h-25.88c-9.01 0-16.33 7.33-16.33 16.33v10.8c0 9.01 7.33 16.33 16.33 16.33h25.88c9.01 0 16.33-7.33 16.33-16.33v-10.8c0-9.01-7.33-16.33-16.33-16.33m-33.56 16.34c0-4.23 3.44-7.67 7.67-7.67h25.88c4.23 0 7.67 3.44 7.67 7.67v10.8c0 4.23-3.44 7.67-7.67 7.67h-25.88c-4.23 0-7.67-3.44-7.67-7.67z" fill="#4c4c50"/>
            <path d="M642.06 100.95c-2.39 0-4.34 1.95-4.34 4.34v25.72l-36.16-29.1c-1.33-1.07-3.05-1.27-4.6-.53-1.54.74-2.46 2.21-2.46 3.91v34.79c0 2.39 1.95 4.34 4.34 4.34s4.34-1.95 4.34-4.34v-25.72l36.16 29.1c.79.63 1.73.97 2.7.97.65 0 1.28-.15 1.89-.44 1.54-.74 2.47-2.2 2.47-3.92v-34.79c0-2.39-1.95-4.34-4.34-4.34Z" fill="#4c4c50"/>
            <path d="M216.05 181.81v-14.05h5.92c.99 0 1.81.17 2.46.5s1.14.78 1.46 1.33c.33.55.49 1.15.49 1.81s-.11 1.16-.34 1.6c-.23.43-.54.78-.92 1.03-.39.25-.82.43-1.3.52v.16c.57.08 1.08.25 1.52.52.43.27.78.64 1.02 1.1.25.47.37 1.04.37 1.71a3.6 3.6 0 0 1-.53 1.92q-.525.855-1.56 1.35c-.68.33-1.51.5-2.47.5zm8.41-10.18c0-.68-.23-1.22-.68-1.63s-1.12-.6-1.99-.6H218v4.46h3.83c.83 0 1.48-.2 1.94-.59s.69-.94.69-1.63Zm-6.46 8.53h4.01c.88 0 1.57-.2 2.06-.59s.73-.97.73-1.72-.26-1.36-.78-1.76-1.21-.59-2.07-.59H218z" fill="#4b4c50"/>
            <path d="M232.93 167.76h1.95v8.91c0 .83.16 1.51.47 2.05s.74.93 1.27 1.18 1.14.38 1.83.38 1.29-.13 1.83-.38c.53-.25.96-.65 1.27-1.18s.47-1.22.47-2.05v-8.91h1.93v8.89c0 .91-.15 1.7-.45 2.36q-.45.99-1.23 1.65c-.52.44-1.11.76-1.77.97s-1.34.32-2.07.32c-.98 0-1.88-.19-2.71-.57s-1.5-.96-2.02-1.75c-.52-.78-.77-1.78-.77-2.98z" fill="#4b4c50"/>
            <path d="M250.69 167.76h1.95v14.05h-1.95z" fill="#4b4c50"/>
            <path d="M261.4 167.76v12.4h6.44v1.65h-8.39v-14.05z" fill="#4b4c50"/>
            <path d="M278.38 167.76c1.53 0 2.84.28 3.94.85s1.96 1.38 2.56 2.45.9 2.32.9 3.76-.3 2.69-.9 3.73-1.45 1.85-2.56 2.41c-1.1.56-2.42.84-3.94.84h-4.8v-14.05h4.8Zm0 12.4c1.78 0 3.13-.47 4.05-1.4q1.38-1.41 1.38-3.93c0-2.52-.46-3.01-1.38-3.97q-1.38-1.44-4.05-1.44h-2.85v10.76h2.85Z" fill="#4b4c50"/>
            <path d="M291.82 167.76h1.95v14.05h-1.95z" fill="#4b4c50"/>
            <path d="M311.59 167.76v14.05h-1.97l-7.08-10.98v10.98h-1.95v-14.05h1.99l7.08 10.94v-10.94z" fill="#4b4c50"/>
            <path d="M329.25 172.04c-.51-.95-1.16-1.64-1.95-2.08s-1.65-.65-2.59-.65-1.83.23-2.61.68-1.39 1.09-1.84 1.91-.67 1.78-.67 2.89.22 2.06.66 2.88q.66 1.23 1.83 1.92c.78.46 1.64.68 2.59.68q1.065 0 1.98-.36a4.9 4.9 0 0 0 1.6-1.02c.45-.44.8-.96 1.04-1.57v-1.54h-4.46v-1.59h6.42v3.23a6.7 6.7 0 0 1-1.42 2.32c-.64.69-1.39 1.23-2.28 1.63-.88.39-1.85.59-2.89.59-.99 0-1.91-.17-2.76-.52s-1.6-.84-2.24-1.48a6.7 6.7 0 0 1-1.5-2.27c-.36-.88-.54-1.84-.54-2.9s.18-2.02.54-2.9.86-1.63 1.5-2.27c.64-.63 1.39-1.13 2.24-1.47s1.77-.52 2.76-.52c.91 0 1.77.15 2.59.44s1.55.72 2.19 1.28 1.14 1.25 1.5 2.07l-1.71.62Z" fill="#4b4c50"/>
            <path d="M346.69 181.81v-14.05h5.92c.99 0 1.81.17 2.46.5s1.14.78 1.47 1.33.49 1.15.49 1.81-.11 1.16-.34 1.6c-.23.43-.54.78-.92 1.03s-.82.43-1.3.52v.16c.58.08 1.08.25 1.52.52.43.27.78.64 1.02 1.1.25.47.37 1.04.37 1.71a3.6 3.6 0 0 1-.53 1.92q-.525.855-1.56 1.35c-.68.33-1.5.5-2.47.5h-6.12Zm8.41-10.18c0-.68-.23-1.22-.68-1.63-.46-.4-1.12-.6-1.99-.6h-3.79v4.46h3.83c.83 0 1.48-.2 1.94-.59s.69-.94.69-1.63Zm-6.47 8.53h4.01c.88 0 1.57-.2 2.06-.59s.73-.97.73-1.72-.26-1.36-.78-1.76c-.52-.39-1.21-.59-2.07-.59h-3.95z" fill="#4b4c50"/>
            <path d="M373 169.41h-7.41v4.46h5.56v1.65h-5.56v4.66H373v1.65h-9.35v-14.05H373v1.65Z" fill="#4b4c50"/>
            <path d="M388.51 167.76h2.15l-5.18 8.79v5.26h-1.95v-5.24l-5.16-8.81h2.15l3.99 7.02 3.99-7.02Z" fill="#4b4c50"/>
            <path d="M402.11 181.95c-.99 0-1.91-.17-2.77-.52s-1.6-.84-2.24-1.48c-.64-.63-1.13-1.39-1.49-2.27s-.54-1.84-.54-2.9.18-2.02.54-2.9.86-1.63 1.49-2.27c.64-.63 1.38-1.13 2.24-1.47.86-.35 1.78-.52 2.77-.52s1.91.17 2.77.52 1.6.84 2.24 1.47c.64.64 1.13 1.39 1.5 2.27.36.88.54 1.84.54 2.9s-.18 2.02-.54 2.9-.86 1.63-1.5 2.27-1.38 1.13-2.24 1.48-1.78.52-2.77.52m.02-1.67c.96 0 1.83-.22 2.59-.67s1.36-1.08 1.81-1.91c.44-.82.66-1.8.66-2.92s-.22-2.11-.66-2.93a4.74 4.74 0 0 0-1.81-1.9c-.76-.45-1.63-.67-2.59-.67s-1.85.22-2.62.67-1.37 1.08-1.82 1.91c-.44.82-.66 1.8-.66 2.92s.22 2.1.66 2.92 1.05 1.46 1.82 1.91 1.64.67 2.62.67" fill="#4b4c50"/>
            <path d="M426.17 167.76v14.05h-1.97l-7.08-10.98v10.98h-1.95v-14.05h1.99l7.08 10.94v-10.94z" fill="#4b4c50"/>
            <path d="M437.79 167.76c1.53 0 2.84.28 3.94.85s1.96 1.38 2.56 2.45.9 2.32.9 3.76-.3 2.69-.9 3.73-1.45 1.85-2.56 2.41c-1.1.56-2.42.84-3.94.84h-4.8v-14.05h4.8Zm0 12.4c1.78 0 3.13-.47 4.05-1.4q1.38-1.41 1.38-3.93c0-2.52-.46-3.01-1.38-3.97q-1.38-1.44-4.05-1.44h-2.85v10.76h2.85Z" fill="#4b4c50"/>
            <path d="M469.82 169.41h-7.41v4.46h5.56v1.65h-5.56v4.66h7.41v1.65h-9.35v-14.05h9.35v1.65Z" fill="#4b4c50"/>
            <path d="M475.74 167.76h2.15l4.01 5.46 4.05-5.46h2.15l-5.1 7.02 5.1 7.02h-2.15l-4.05-5.46-4.01 5.46h-2.15l5.08-7.02z" fill="#4b4c50"/>
            <path d="M504.42 171.94c0 .54-.09 1.05-.26 1.54-.17.5-.46.94-.84 1.34-.39.4-.89.72-1.51.95s-1.36.35-2.25.35h-3.23v5.68h-1.95v-14.05h5.18c1.11 0 2.02.19 2.74.56.72.38 1.25.88 1.6 1.51.35.64.52 1.33.52 2.1Zm-4.86 2.54c.68 0 1.24-.1 1.67-.31s.74-.5.94-.88q.3-.57.3-1.35c0-.8-.23-1.42-.69-1.87q-.69-.66-2.22-.66h-3.23v5.08h3.23Z" fill="#4b4c50"/>
            <path d="M519.79 169.41h-7.41v4.46h5.56v1.65h-5.56v4.66h7.41v1.65h-9.35v-14.05h9.35v1.65Z" fill="#4b4c50"/>
            <path d="M525.45 174.78c0-1.06.18-2.02.53-2.9s.85-1.63 1.5-2.27c.64-.63 1.39-1.13 2.24-1.47s1.77-.52 2.76-.52c1.4 0 2.66.33 3.76.98 1.1.66 1.94 1.6 2.52 2.83l-1.57.56c-.32-.63-.73-1.14-1.22-1.52-.49-.39-1.04-.68-1.64-.87s-1.21-.29-1.84-.29c-.96 0-1.83.22-2.6.66s-1.37 1.07-1.82 1.9c-.44.82-.66 1.8-.66 2.92s.22 2.08.66 2.9 1.05 1.46 1.82 1.91 1.64.67 2.6.67c.64 0 1.27-.1 1.88-.3s1.17-.53 1.7-.98c.52-.46.95-1.04 1.28-1.77l1.57.56c-.6 1.4-1.46 2.45-2.59 3.14-1.12.69-2.41 1.03-3.85 1.03-.99 0-1.91-.17-2.76-.52s-1.6-.84-2.24-1.49-1.14-1.4-1.5-2.28-.53-1.84-.53-2.88" fill="#4b4c50"/>
            <path d="M544.01 167.76h10.72v1.65h-4.37v12.4h-1.95v-12.4h-4.4z" fill="#4b4c50"/>
            <path d="M565.22 169.41h-.68l-4.45 12.4h-1.97l5.06-14.05h3.37l5.06 14.05h-1.97l-4.41-12.4Zm-4.53 7.16h8.19v1.65h-8.19z" fill="#4b4c50"/>
            <path d="M574.99 167.76h10.72v1.65h-4.37v12.4h-1.95v-12.4h-4.4z" fill="#4b4c50"/>
            <path d="M591.73 167.76h1.95v14.05h-1.95z" fill="#4b4c50"/>
            <path d="M606.76 181.95c-.99 0-1.91-.17-2.77-.52s-1.6-.84-2.24-1.48c-.64-.63-1.13-1.39-1.49-2.27s-.54-1.84-.54-2.9.18-2.02.54-2.9.86-1.63 1.49-2.27c.64-.63 1.38-1.13 2.24-1.47.86-.35 1.78-.52 2.77-.52s1.91.17 2.77.52 1.6.84 2.24 1.47c.64.64 1.13 1.39 1.5 2.27.36.88.54 1.84.54 2.9s-.18 2.02-.54 2.9-.86 1.63-1.5 2.27-1.38 1.13-2.24 1.48-1.78.52-2.77.52m.02-1.67c.96 0 1.83-.22 2.59-.67s1.36-1.08 1.81-1.91c.44-.82.66-1.8.66-2.92s-.22-2.11-.66-2.93a4.74 4.74 0 0 0-1.81-1.9c-.76-.45-1.63-.67-2.59-.67s-1.85.22-2.62.67-1.37 1.08-1.82 1.91c-.44.82-.66 1.8-.66 2.92s.22 2.1.66 2.92 1.05 1.46 1.82 1.91 1.64.67 2.62.67" fill="#4b4c50"/>
            <path d="M630.82 167.76v14.05h-1.97l-7.08-10.98v10.98h-1.95v-14.05h1.99l7.08 10.94v-10.94z" fill="#4b4c50"/>
            <path d="M638.79 178.12c.08.38.24.73.49 1.05s.59.6 1.01.8c.43.21.96.31 1.61.31q1.44 0 2.13-.66c.45-.44.68-.96.68-1.57 0-.49-.14-.9-.41-1.22s-.65-.59-1.12-.8-1.02-.42-1.64-.6c-.54-.15-1.06-.31-1.59-.49-.52-.18-.99-.41-1.4-.68a3 3 0 0 1-.98-1.06c-.24-.43-.36-.98-.36-1.64 0-.82.19-1.52.58-2.11q.585-.885 1.62-1.35c.7-.31 1.51-.47 2.43-.47.79 0 1.49.11 2.09.33s1.11.54 1.54.95.73.9.93 1.46l-1.77.64c-.08-.31-.25-.59-.51-.85s-.59-.47-.98-.63-.84-.25-1.33-.26c-.5 0-.94.08-1.34.25s-.72.41-.95.72-.35.69-.35 1.11c0 .48.14.86.41 1.14s.64.51 1.08.68.95.34 1.52.5c.55.17 1.09.36 1.63.56.53.2 1.02.46 1.44.76s.77.69 1.03 1.15.39 1.03.39 1.72q0 1.11-.51 2.04c-.51.93-.86 1.12-1.56 1.49s-1.57.55-2.63.55c-.88 0-1.67-.13-2.35-.4s-1.25-.64-1.7-1.11-.75-1.03-.91-1.66l1.79-.66Z" fill="#4b4c50"/>
        </g>
    </g>
</svg>
