<svg width="168" height="67" viewBox="0 0 168 67" fill="none" xmlns="http://www.w3.org/2000/svg">
<path d="M0.285183 33.7363C2.82722 32.4294 5.09074 30.8344 7.04479 28.823C9.8123 25.9831 11.8371 22.6957 13.0749 18.9165C13.8575 16.5285 14.3084 14.0563 14.976 11.6417C15.7142 8.98343 16.4083 6.29858 18.1988 4.09222C19.7859 2.13839 21.9036 1.19913 24.3572 0.897859C27.4474 0.516841 30.4448 1.09723 33.4466 1.69091C35.9356 2.18712 38.4334 2.64346 40.9357 3.05549C45.5379 3.80867 50.1622 4.37133 54.7997 4.89413C59.9369 5.47451 65.0917 5.78021 70.2421 6.10364C72.7487 6.26313 75.2642 6.3606 77.7886 6.28085C79.862 6.21439 81.9399 6.43149 84.0177 6.45807C86.6703 6.49352 89.3228 6.28972 91.9754 6.28529C95.0966 6.27642 98.2133 6.20111 101.321 5.97516C104.075 5.77579 106.83 5.65616 109.58 5.3992C111.998 5.17767 114.42 4.94729 116.834 4.6726C119.677 4.34918 122.511 3.95044 125.34 3.49853C128.36 3.01561 131.366 2.48396 134.359 1.87256C136.362 1.46496 138.347 0.973178 140.389 0.804821C143.559 0.543424 146.631 0.729502 149.24 2.87384C150.787 4.14538 151.676 5.85996 152.365 7.68974C153.449 10.5828 154.045 13.6088 154.806 16.5905C156.716 24.1001 160.991 29.8021 167.852 33.4927C167.967 33.5547 168.082 33.6256 168.281 33.7408C166.534 34.68 164.912 35.6724 163.449 36.8997C160.195 39.6288 157.732 42.9428 156.114 46.8815C154.996 49.5973 154.492 52.4771 153.74 55.2949C152.989 58.1171 152.29 60.9703 150.456 63.3495C148.798 65.4982 146.512 66.4375 143.886 66.721C141.463 66.9824 139.098 66.6014 136.742 66.1096C131.883 65.095 127.02 64.1558 122.095 63.4957C118.364 62.9994 114.628 62.5298 110.884 62.1931C108.054 61.9406 105.212 61.7811 102.382 61.5773C96.1488 61.1209 89.9108 61.1254 83.6729 61.1165C79.5658 61.1121 75.4543 61.1254 71.3561 61.3558C67.8415 61.5507 64.318 61.7235 60.8034 62.0558C58.226 62.2994 55.6397 62.5298 53.0623 62.7779C50.3258 63.0393 47.6025 63.4824 44.8703 63.8279C42.2443 64.1602 39.6359 64.621 37.032 65.0995C35.0514 65.4628 33.0885 65.9457 31.1035 66.2913C28.3449 66.7698 25.5552 67.0666 22.8054 66.3577C20.0689 65.6533 18.1016 63.8944 16.8681 61.3469C15.7098 58.95 15.0378 56.3804 14.4764 53.793C13.3933 48.7688 11.7487 44.0238 8.31802 40.0497C6.14734 37.5377 3.60973 35.5174 0.687488 33.9712C0.568123 33.9091 0.457599 33.8338 0.280762 33.7275L0.285183 33.7363ZM166.915 33.7762C166.809 33.6655 166.764 33.5901 166.698 33.5503C159.673 29.5186 155.672 23.3292 153.899 15.5538C153.25 12.705 152.626 9.84736 151.486 7.14036C150.036 3.69347 147.533 1.64661 143.727 1.39407C141.309 1.23457 138.917 1.47382 136.556 2.00547C132.232 2.97131 127.878 3.73778 123.501 4.41121C118.691 5.15109 113.859 5.6916 109.014 6.10364C104.137 6.5201 99.239 6.71061 94.345 6.90998C88.2706 7.15809 82.1919 7.1758 76.1131 6.93213C69.9061 6.67959 63.7035 6.42706 57.5186 5.79793C54.9633 5.53654 52.4036 5.28843 49.8571 4.96944C47.2841 4.64602 44.72 4.24285 42.1514 3.87512C39.0126 3.42765 35.8958 2.83839 32.7923 2.19155C30.2945 1.66876 27.7922 1.24787 25.2281 1.41179C21.8638 1.62889 19.2245 3.00675 17.602 6.10364C16.4968 8.21253 15.9088 10.4765 15.3164 12.7537C14.6134 15.474 14.105 18.2431 13.0086 20.857C11.3198 24.8887 8.83085 28.309 5.46652 31.1002C4.27287 32.0882 2.96869 32.9078 1.5982 33.7363C2.40723 34.2503 3.15879 34.6933 3.87056 35.1895C9.92282 39.456 13.3093 45.3973 14.8124 52.548C15.3959 55.3259 16.0502 58.0994 17.2439 60.7C18.6055 63.6729 20.8249 65.5425 24.1229 65.959C26.7843 66.2957 29.4236 66.052 32.0275 65.4805C36.1964 64.5723 40.3963 63.8412 44.6139 63.2298C48.7254 62.6317 52.8501 62.1267 56.9881 61.7589C61.5638 61.3558 66.1394 60.9526 70.7372 60.8019C76.48 60.6114 82.2184 60.3412 87.97 60.4652C93.9604 60.5937 99.9508 60.7399 105.928 61.1918C108.629 61.3956 111.335 61.5507 114.018 61.8652C117.219 62.2463 120.424 62.6007 123.612 63.0969C126.963 63.6197 130.3 64.1779 133.625 64.8469C136.189 65.3653 138.722 66.0786 141.37 66.1141C143.687 66.1495 145.973 66.0875 148.006 64.7583C150.478 63.1412 151.578 60.607 152.361 57.9399C153.227 54.9803 153.868 51.9543 154.722 48.9948C156.114 44.17 158.811 40.1516 162.564 36.8332C163.891 35.6636 165.367 34.6933 166.906 33.7762H166.915Z" fill="#CCA663" fill-opacity="0.49"/>
<path d="M166.916 33.7764C165.382 34.6979 163.901 35.6637 162.575 36.8334C158.821 40.1473 156.124 44.1658 154.732 48.9949C153.879 51.9589 153.238 54.9805 152.371 57.94C151.589 60.6116 150.488 63.1414 148.016 64.7585C145.987 66.0876 143.702 66.1496 141.381 66.1142C138.732 66.0743 136.199 65.361 133.635 64.8471C130.311 64.1781 126.973 63.6154 123.622 63.0971C120.434 62.6008 117.229 62.2464 114.028 61.8654C111.34 61.5464 108.635 61.3913 105.938 61.192C99.9608 60.7445 93.9705 60.5939 87.9801 60.4654C82.2285 60.3413 76.4901 60.616 70.7473 60.8021C66.1539 60.9527 61.5783 61.3515 56.9982 61.7591C52.8602 62.1268 48.7355 62.6319 44.624 63.23C40.4064 63.8458 36.2065 64.5724 32.0376 65.4806C29.4292 66.0477 26.7899 66.2958 24.1329 65.9591C20.8349 65.5427 18.6156 63.673 17.254 60.7002C16.0603 58.0995 15.406 55.3261 14.8225 52.5482C13.3193 45.393 9.9329 39.4518 3.88064 35.1897C3.16887 34.689 2.41731 34.2504 1.60828 33.7365C2.97877 32.908 4.28294 32.0884 5.47659 31.1004C8.84535 28.3092 11.3299 24.8933 13.0187 20.8572C14.1151 18.2432 14.6191 15.4697 15.3264 12.7539C15.9144 10.4811 16.5024 8.21267 17.6121 6.10377C19.239 3.00689 21.8738 1.62902 25.2382 1.41193C27.8023 1.248 30.3046 1.66889 32.8024 2.19169C35.9059 2.83853 39.0227 3.42778 42.1615 3.87526C44.7301 4.24299 47.2942 4.64616 49.8672 4.96958C52.4137 5.28857 54.9734 5.53668 57.5287 5.79807C63.7092 6.43163 69.9161 6.68416 76.1231 6.93227C82.2019 7.17594 88.2807 7.15822 94.3551 6.91012C99.2491 6.71075 104.147 6.51581 109.024 6.10377C113.865 5.69174 118.697 5.15566 123.511 4.41135C127.888 3.73792 132.247 2.97145 136.566 2.00561C138.927 1.47839 141.319 1.23471 143.737 1.39421C147.543 1.64674 150.041 3.69361 151.496 7.1405C152.636 9.8475 153.26 12.7051 153.91 15.5539C155.682 23.3294 159.683 29.5187 166.708 33.5504C166.774 33.5903 166.819 33.6656 166.925 33.7764H166.916ZM130.39 40.4929C130.28 39.1239 130.439 37.9631 130.169 36.8289C130.094 36.5144 129.975 36.2707 129.586 36.2618C129.174 36.2485 129.086 36.4966 129.042 36.8245C129.002 37.0948 128.927 37.3562 128.865 37.622C128.635 38.6454 128.794 39.7397 128.135 40.6879C127.543 41.5429 127.211 42.5752 126.407 43.386C126.102 42.7436 126.044 42.1543 126.066 41.5562C126.111 40.1872 126.168 38.8182 126.221 37.4492C126.239 37.0283 126.142 36.634 125.655 36.603C125.156 36.572 124.811 36.8511 124.798 37.3872C124.784 38.1182 124.528 38.7872 124.298 39.4518C123.874 40.6657 123.582 41.9505 122.751 43.0449C122.446 42.5309 122.49 42.0303 122.499 41.5518C122.521 40.1562 122.574 38.7606 122.609 37.3606C122.618 37.0106 122.539 36.6739 122.11 36.6429C121.734 36.6163 121.491 36.8112 121.42 37.1967C121.314 37.7638 121.142 38.322 121.106 38.8891C121.049 39.7973 120.425 40.1518 119.669 40.5195C120.138 39.1815 119.037 38.2024 119.011 36.984C118.997 36.4523 118.524 36.1555 117.976 36.1023C117.158 36.0226 116.557 36.3815 116.088 37.0283C115.054 38.446 114.917 41.6714 115.841 43.16C116.491 44.2056 117.932 44.2677 118.67 43.2841C118.966 42.8854 119.223 42.4467 119.307 41.9683C119.431 41.2505 119.908 40.9537 120.505 40.7011C120.916 40.5239 121.04 40.5904 121.035 41.029C121.027 41.8043 121.208 42.5442 121.438 43.2841C121.579 43.736 121.747 44.1347 122.256 44.1879C122.804 44.2455 123.246 44.0683 123.555 43.5366C123.94 42.8809 124.17 42.1543 124.546 41.3569C124.678 41.955 124.749 42.4334 124.895 42.8898C125.275 44.086 126.349 44.3563 127.242 43.4923C127.437 43.3062 127.57 43.0537 127.746 42.8499C128.1 42.4512 128.144 41.8486 128.639 41.4632C128.79 42.141 128.639 42.7746 128.834 43.3727C129.046 44.0328 129.537 44.2056 130.059 43.767C130.311 43.5499 130.461 43.2664 130.518 42.9208C130.823 41.0777 131.349 39.2923 132.066 37.5732C132.269 37.077 132.415 36.4745 133.007 36.0713C132.826 37.8568 132.83 39.5271 132.87 41.2018C132.884 41.8043 132.959 42.4024 133.206 42.9651C133.418 43.4524 133.631 43.9221 134.254 43.9974C134.926 44.0771 135.439 43.798 135.784 43.2486C136.173 42.6328 136.509 41.9815 136.902 41.2727C137.022 41.7467 137.123 42.1588 137.234 42.5708C137.406 43.2043 137.694 43.7936 138.392 43.9309C139.152 44.0816 139.617 43.5544 139.984 42.9873C140.266 42.5486 140.47 42.0569 140.788 41.4277C140.903 42.048 140.943 42.5088 141.084 42.9385C141.257 43.4657 141.54 43.9442 142.194 43.9974C142.813 44.0461 143.131 43.6695 143.401 43.1911C143.843 42.4113 144.13 41.5651 144.493 40.7366C144.542 41.5474 144.524 42.3537 144.542 43.16C144.59 45.4462 144.351 47.6304 142.57 49.3361C142.397 49.5 142.278 49.7304 142.159 49.9431C141.606 50.9178 141.058 51.9013 140.947 53.0444C140.859 54.0013 141.328 54.3646 142.247 54.0855C142.702 53.9482 143.061 53.6513 143.374 53.3013C144.749 51.7773 145.32 49.8766 145.647 47.9405C145.912 46.3544 146.42 45.012 147.495 43.7759C148.68 42.4157 149.542 40.8075 149.913 38.9954C149.957 38.7695 150.077 38.4416 149.767 38.3486C149.382 38.2378 149.44 38.641 149.382 38.8359C148.883 40.5151 147.95 41.9638 146.986 43.386C146.792 43.6784 146.677 44.1303 146.186 44.2233C146.199 44.0683 146.208 43.962 146.213 43.8556C146.35 41.4986 146.407 39.1505 145.806 36.8378C145.713 36.4789 145.589 36.1156 145.147 36.1201C144.674 36.1245 144.714 36.541 144.683 36.8511C144.564 38.0606 144.192 39.2125 143.781 40.3378C143.454 41.2372 143.158 42.1721 142.45 43.0316C142.119 41.1708 142.234 39.4252 142.212 37.6884C142.207 37.3606 142.234 37.0416 142.119 36.7137C141.986 36.346 141.765 36.1644 141.389 36.2042C141 36.2441 140.938 36.5454 140.916 36.8644C140.863 37.5732 140.846 38.291 140.74 38.991C140.496 40.6037 139.9 42.0746 138.892 43.386C138.498 43.0892 138.379 42.6816 138.352 42.3316C138.144 39.6777 137.729 36.9929 139.161 34.4985C139.356 34.1574 139.617 34.1485 139.922 34.1884C140.572 34.277 141.217 34.401 141.871 34.4631C142.07 34.4808 142.353 34.8219 142.486 34.4454C142.592 34.1441 142.305 33.9757 142.079 33.8074C141.637 33.4751 141.106 33.4308 140.598 33.3732C139.833 33.2846 139.471 33.063 139.789 32.1991C140.045 31.5035 140.068 30.7415 139.988 30.0016C139.931 29.4877 139.82 28.8984 139.201 28.7965C138.635 28.7035 138.33 29.1465 138.091 29.5984C137.61 30.5067 137.402 31.4947 137.26 32.496C137.185 33.0453 137.026 33.3156 136.376 33.4042C135.669 33.5017 134.886 33.2757 134.241 33.7719C134.029 33.9314 133.551 33.8827 133.754 34.3479C133.918 34.7245 134.272 34.6713 134.612 34.6137C135.178 34.5162 135.748 34.4498 136.314 34.3523C136.858 34.2593 137.079 34.4365 136.955 35.0036C136.774 35.8409 136.703 36.7004 136.8 37.5378C137.035 39.5005 136.199 41.1043 135.227 42.6771C135.098 42.8809 134.957 43.1955 134.718 43.1556C134.404 43.098 134.413 42.717 134.396 42.4689C134.312 41.2417 134.281 40.0056 134.201 38.7783C134.13 37.6884 134.316 36.5764 133.971 35.5131C133.746 34.8087 132.99 34.6536 132.508 35.2074C132.278 35.4732 132.07 35.7701 131.915 36.0846C131.252 37.4093 130.876 38.8315 130.403 40.4929H130.39ZM29.4381 29.7491C29.4381 29.2573 29.4469 28.7611 29.4381 28.2693C29.4204 27.3123 29.4071 26.3509 29.3629 25.3939C29.3408 24.9465 29.1684 24.5876 28.6246 24.592C28.1339 24.592 27.9659 24.8933 27.9261 25.3319C27.8952 25.6864 27.8156 26.0364 27.8023 26.3908C27.7493 27.813 27.7095 29.2396 27.6697 30.6618C27.5371 35.234 27.3381 39.8106 27.7891 44.374C27.8465 44.981 27.4707 45.136 27.0773 45.3088C25.8217 45.8715 24.6502 46.5626 23.7174 47.5949C22.3999 49.0525 22.8951 50.5456 24.8182 50.9665C25.2514 51.0595 25.6891 51.0507 26.1224 50.9931C27.6034 50.7981 29.0181 50.3329 30.3311 49.6772C34.7874 47.4664 38.7088 44.5423 41.6973 40.5062C44.2128 37.1036 45.3755 33.3998 43.9387 29.1864C42.4621 24.8579 38.9254 22.5319 34.9156 21.9781C30.5919 21.38 26.5291 22.3369 22.7757 24.4857C19.8977 26.1338 17.6916 28.4199 16.9445 31.8137C16.5687 33.515 17.0816 34.9504 18.315 36.1289C18.7129 36.5099 19.2301 36.7359 19.8181 36.6163C19.9507 36.5897 20.0966 36.5498 20.0789 36.3682C20.0657 36.2264 19.9419 36.2397 19.8358 36.2175C18.6598 36.0093 17.9834 35.327 17.7491 34.1751C17.3247 32.0662 18.2398 30.3605 19.46 28.8098C21.1709 26.6212 23.4654 25.2344 26.0561 24.2863C29.4911 23.0369 32.9439 22.5673 36.5867 23.4002C42.4312 24.7338 44.3631 30.4491 42.7097 35.2473C41.7327 38.0739 39.9157 40.3378 37.8025 42.4113C35.3577 44.8082 32.5637 46.6955 29.5574 48.2728C28.0808 49.0481 26.5114 49.6241 24.827 49.7747C24.5883 49.7969 24.27 49.881 24.1285 49.6817C23.9428 49.4158 24.2346 49.1633 24.3628 48.9551C25.1542 47.7013 26.4318 47.0455 27.683 46.3721C27.9924 46.2038 28.1118 46.3854 28.1914 46.6734C28.3019 47.0721 28.576 47.2759 28.996 47.174C29.4469 47.0677 29.5176 46.7266 29.4381 46.3411C29.3143 45.7341 29.6149 45.5082 30.1543 45.393C31.3833 45.1272 32.5858 44.7373 33.8678 44.8569C34.0447 44.8746 34.2923 44.9411 34.332 44.6708C34.3718 44.4272 34.1419 44.3784 33.9695 44.2987C33.0279 43.8866 32.0332 44.0683 31.0517 44.0151C30.4902 43.9841 29.8536 44.7373 29.4558 44.1037C29.1772 43.6563 29.3364 42.9297 29.3054 42.3316C29.2966 42.1942 29.3054 42.0569 29.3054 41.9195C29.1817 37.8612 29.3806 33.8074 29.4381 29.7535V29.7491ZM111.57 37.1656C111.336 36.4391 111.163 35.8985 111.093 35.3181C111 34.534 110.965 33.7365 110.677 32.9833C110.553 32.651 110.39 32.4649 110.018 32.5358C109.647 32.6067 109.665 32.8903 109.66 33.1694C109.643 34.5694 109.682 35.9606 110.041 37.3251C110.213 37.9853 110.416 38.6277 111.239 38.6809C112.065 38.734 112.627 38.3353 112.976 37.5777C113.493 36.4479 113.79 35.265 114.033 34.0555C114.705 30.6928 114.93 27.3478 113.913 23.9939C112.927 20.7508 110.129 19.2622 106.933 20.3565C104.174 21.3002 102.476 23.4002 101.084 25.806C99.5585 28.4421 98.8512 31.3307 98.7274 34.339C98.5682 38.1093 99.0324 41.7955 101.101 45.0696C102.277 46.9304 103.904 48.2418 106.212 48.5209C107.883 48.7247 109.408 48.3392 110.858 47.5595C111.725 47.0899 112.538 46.5316 113.25 45.8449C113.454 45.6455 113.622 45.4107 113.52 45.1183C113.418 44.8303 113.135 44.7993 112.896 44.8613C112.127 45.0651 111.539 45.6588 110.766 45.8892C110.43 45.9911 110.841 46.3057 110.788 46.5228C110.77 46.5892 110.686 46.6424 110.624 46.6911C109.302 47.7677 106.654 47.9228 105.173 47.0367C102.773 45.6056 101.747 43.2619 101.15 40.7277C100.253 36.9264 100.345 33.1251 101.579 29.3858C102.512 26.5592 103.913 24.0294 106.296 22.1464C107.375 21.2958 108.56 20.7198 109.93 21.3932C111.429 22.1287 111.973 23.5819 112.472 25.0439C113.206 27.206 113.091 29.4389 112.896 31.6453C112.737 33.4618 112.339 35.2606 111.575 37.1656H111.57ZM64.4917 42.2872C63.8197 42.8145 63.1389 43.1335 62.741 43.7892C62.5774 44.055 62.3785 44.2898 62.5553 44.6088C62.7366 44.9278 63.0681 44.9101 63.3643 44.8746C64.5182 44.7284 65.3847 44.1126 66.008 43.1423C66.0788 43.036 66.1495 42.8543 66.1097 42.7613C65.7693 42.0214 66.3485 41.8398 66.795 41.5562C67.3476 41.2106 67.909 40.8651 68.4263 40.4663C68.8596 40.134 69.253 39.7397 69.4033 39.1859C69.452 39.0087 69.4962 38.7783 69.253 38.6941C69.0452 38.6233 68.9833 38.8226 68.9082 38.96C68.5987 39.5537 68.1345 40.0144 67.6173 40.422C65.7074 41.9284 65.5483 41.9417 63.5323 40.7765C62.2458 40.0321 62.0027 38.929 62.8559 37.684C63.0725 37.3694 63.3245 36.9175 63.7047 37.0372C64.1689 37.1789 64.3458 37.6751 64.3237 38.1847C64.306 38.5967 64.2883 39.0043 64.2795 39.4163C64.2706 39.6821 64.3148 39.9214 64.6508 39.948C64.9647 39.9701 65.1902 39.8239 65.2521 39.5138C65.3847 38.8404 65.4554 38.1714 65.314 37.4802C65.1725 36.7846 64.7702 36.4258 64.1203 36.3106C62.4403 36.0093 61.0654 37.1479 60.8488 38.8315C60.6101 40.679 59.5048 42.0524 58.1078 43.2043C57.8735 43.3949 57.5817 43.4746 57.343 43.3151C56.5693 42.7967 56.6578 41.9505 56.5959 41.1663C56.5428 40.4663 57.1264 40.7011 57.458 40.5815C57.9443 40.4132 58.3112 40.1119 58.603 39.6954C59.0981 38.9866 59.2175 38.1847 59.1733 37.3517C59.1025 36.0625 58.2007 35.553 57.0866 36.1865C55.9416 36.8378 55.4995 37.972 55.274 39.1638C55.0309 40.4397 54.6639 41.6537 53.9522 42.7436C53.8063 42.9651 53.7267 43.3461 53.4128 43.2619C53.1829 43.1999 53.0635 42.8676 52.9928 42.5974C52.9574 42.4645 52.953 42.3271 52.9353 42.1898C52.7187 40.4708 52.816 38.7429 52.8513 37.0194C52.8734 35.965 53.4128 35.008 54.0229 34.308C54.4429 33.8251 55.4597 34.3656 56.2157 34.4276C56.3262 34.4365 56.4323 34.4897 56.5384 34.4808C56.7373 34.4719 56.9672 34.8175 57.1043 34.5162C57.2325 34.2416 57.0247 34.02 56.7727 33.8517C56.251 33.4972 55.6498 33.4308 55.0574 33.3422C54.4871 33.258 54.1997 33.1162 54.3633 32.4029C54.5622 31.5345 54.7744 30.6307 54.5269 29.7269C54.4252 29.3459 54.3633 28.8718 53.8461 28.801C53.3421 28.7301 53.0414 29.0446 52.7939 29.4389C52.2192 30.3693 51.976 31.4061 51.8876 32.4694C51.8345 33.1295 51.556 33.32 50.9282 33.4042C50.1369 33.5105 49.2792 33.3643 48.5675 33.8871C48.4437 33.9802 48.2049 33.9979 48.258 34.2017C48.2934 34.339 48.4437 34.4631 48.563 34.5605C48.7531 34.7067 48.9786 34.6624 49.1952 34.6314C49.7346 34.5473 50.2784 34.4897 50.8133 34.3745C51.4234 34.2416 51.5825 34.4719 51.5251 35.0568C51.4587 35.708 51.5162 36.377 51.4411 37.0283C51.2952 38.2334 51.6488 39.4872 51.0078 40.648C50.495 41.5784 50.1457 42.6062 49.2306 43.3461C49.1333 43.1202 49.0847 42.9961 49.0272 42.8721C48.2801 41.2062 48.7222 39.3632 48.2447 37.653C48.0723 37.0372 48.0856 36.3327 47.3429 36.1466C46.5869 35.9606 45.906 36.253 45.4993 36.9131C44.3543 38.7562 43.9741 40.803 44.0625 42.9429C44.0846 43.51 44.2836 44.0727 44.9644 44.1347C45.6585 44.1968 46.0077 43.7582 46.2907 43.1423C46.5869 42.4955 46.6532 41.7379 47.1351 41.1398C47.3208 41.7157 47.4711 42.2429 47.6612 42.7524C47.8911 43.3638 48.227 43.8955 48.9565 43.9752C49.7213 44.055 50.1723 43.5987 50.5171 42.9917C50.8133 42.4733 51.0962 41.9505 51.4499 41.3081C51.6356 41.8841 51.7947 42.3448 51.9318 42.81C52.0998 43.3727 52.4269 43.8025 53.0105 43.9265C53.6162 44.055 54.0627 43.7227 54.3942 43.2486C54.6639 42.8632 54.8938 42.4556 55.1679 42.0126C55.4862 42.5619 55.6321 43.1069 56.083 43.4613C57.1927 44.3385 58.5146 44.1303 59.5358 42.9031C60.1945 42.11 60.6189 41.1619 61.1362 40.2049C62.0204 41.2993 63.3201 41.6005 64.5049 42.2828L64.4917 42.2872ZM82.9668 50.1158C83.8377 50.1956 84.797 50.014 85.6945 49.7127C90.6105 48.0734 94.3374 41.8885 90.3895 36.3283C89.9386 35.6947 89.9474 35.234 90.3762 34.5916C91.2427 33.289 92.0031 31.8934 92.0473 30.2852C92.1402 26.9092 90.7299 24.2066 87.9536 22.3458C84.8633 20.2768 81.5388 20.2192 78.3336 22.0179C75.7871 23.4445 74.2708 25.7351 73.8021 28.6813C73.4352 30.9807 74.231 32.9346 75.4821 34.7599C75.8314 35.2694 75.8535 35.6327 75.5042 36.1511C74.7394 37.2853 74.0276 38.4815 73.8375 39.8594C73.086 45.2778 77.3699 50.1203 82.9668 50.1158Z" fill="#5A3C2F"/>
<path d="M130.391 40.4931C130.864 38.8317 131.244 37.4051 131.903 36.0848C132.062 35.7702 132.265 35.4734 132.495 35.2076C132.977 34.6538 133.733 34.8133 133.958 35.5133C134.303 36.581 134.117 37.6886 134.188 38.7785C134.268 40.0058 134.299 41.2419 134.383 42.4691C134.4 42.7172 134.392 43.1026 134.705 43.1558C134.949 43.2001 135.09 42.8811 135.214 42.6773C136.186 41.1045 137.022 39.5007 136.788 37.538C136.686 36.7006 136.761 35.8367 136.942 35.0038C137.066 34.4367 136.845 34.2595 136.301 34.3525C135.736 34.45 135.165 34.5164 134.599 34.6139C134.259 34.6715 133.905 34.7247 133.742 34.3481C133.538 33.8873 134.016 33.936 134.228 33.7721C134.873 33.2759 135.656 33.5063 136.363 33.4044C137.013 33.3158 137.168 33.0411 137.247 32.4961C137.389 31.4949 137.597 30.5069 138.079 29.5986C138.322 29.1467 138.627 28.7037 139.188 28.7967C139.812 28.8986 139.922 29.4879 139.975 30.0018C140.055 30.7417 140.033 31.5037 139.776 32.1993C139.458 33.0632 139.82 33.2848 140.585 33.3734C141.094 33.431 141.624 33.4753 142.066 33.8076C142.292 33.9759 142.579 34.1443 142.473 34.4455C142.34 34.8221 142.057 34.481 141.859 34.4633C141.204 34.4012 140.559 34.2772 139.909 34.1886C139.604 34.1443 139.343 34.1576 139.148 34.4987C137.716 36.993 138.132 39.6735 138.339 42.3317C138.366 42.6817 138.485 43.0849 138.879 43.3862C139.891 42.0748 140.488 40.6039 140.727 38.9912C140.833 38.2912 140.851 37.5734 140.904 36.8646C140.93 36.5456 140.988 36.2443 141.377 36.2044C141.752 36.169 141.978 36.3506 142.106 36.7139C142.221 37.0374 142.195 37.3608 142.199 37.6886C142.221 39.4298 142.106 41.1754 142.438 43.0318C143.145 42.1722 143.441 41.233 143.768 40.338C144.18 39.2127 144.551 38.0608 144.67 36.8513C144.701 36.5367 144.666 36.1247 145.134 36.1203C145.577 36.1158 145.7 36.4747 145.793 36.838C146.394 39.1507 146.337 41.5033 146.2 43.8558C146.195 43.9621 146.182 44.0729 146.173 44.2235C146.669 44.1261 146.779 43.6742 146.974 43.3862C147.937 41.9596 148.87 40.5108 149.37 38.8361C149.427 38.6412 149.37 38.2336 149.754 38.3488C150.064 38.4418 149.944 38.7697 149.9 38.9956C149.529 40.8077 148.667 42.4159 147.482 43.7761C146.408 45.0077 145.899 46.3546 145.634 47.9407C145.307 49.8768 144.737 51.7775 143.362 53.3015C143.048 53.6515 142.69 53.9439 142.234 54.0857C141.315 54.3648 140.846 54.0015 140.935 53.0446C141.041 51.9015 141.593 50.9179 142.146 49.9433C142.265 49.7306 142.385 49.5002 142.557 49.3363C144.339 47.635 144.577 45.4463 144.529 43.1602C144.511 42.3539 144.529 41.5476 144.48 40.7368C144.113 41.5653 143.826 42.4115 143.388 43.1913C143.118 43.6742 142.8 44.0508 142.181 43.9976C141.523 43.9444 141.244 43.4704 141.072 42.9387C140.93 42.509 140.89 42.0482 140.775 41.4279C140.457 42.0571 140.254 42.5488 139.971 42.9874C139.608 43.5545 139.14 44.0818 138.379 43.9311C137.685 43.7938 137.393 43.209 137.221 42.571C137.11 42.1634 137.009 41.7514 136.889 41.2729C136.492 41.9773 136.16 42.6286 135.771 43.2488C135.426 43.7938 134.918 44.0729 134.241 43.9976C133.618 43.9267 133.41 43.4526 133.193 42.9653C132.946 42.4026 132.871 41.8089 132.858 41.202C132.818 39.5317 132.813 37.857 132.995 36.0715C132.402 36.4791 132.256 37.0817 132.053 37.5734C131.337 39.2925 130.811 41.0779 130.506 42.921C130.448 43.2666 130.298 43.5545 130.046 43.7672C129.524 44.2102 129.033 44.033 128.821 43.3729C128.627 42.7704 128.777 42.1368 128.627 41.4634C128.132 41.8488 128.083 42.4514 127.734 42.8501C127.552 43.0539 127.424 43.302 127.23 43.4925C126.337 44.3565 125.262 44.0862 124.882 42.89C124.736 42.4336 124.666 41.9552 124.533 41.357C124.157 42.1545 123.927 42.8811 123.543 43.5368C123.233 44.064 122.791 44.2457 122.243 44.1881C121.739 44.1349 121.571 43.7406 121.425 43.2843C121.191 42.5444 121.014 41.8045 121.023 41.0292C121.023 40.5861 120.899 40.5241 120.492 40.7013C119.895 40.9583 119.418 41.2507 119.294 41.9684C119.21 42.4514 118.958 42.8855 118.657 43.2843C117.919 44.2723 116.478 44.2103 115.828 43.1602C114.909 41.676 115.041 38.4507 116.076 37.0285C116.544 36.3816 117.145 36.0228 117.963 36.1025C118.512 36.1557 118.989 36.4525 118.998 36.9842C119.029 38.2026 120.125 39.1817 119.657 40.5197C120.417 40.152 121.036 39.7975 121.093 38.8893C121.129 38.3222 121.301 37.7595 121.407 37.1969C121.478 36.8114 121.726 36.6165 122.097 36.643C122.526 36.6741 122.605 37.0063 122.597 37.3608C122.566 38.7564 122.508 40.152 122.486 41.552C122.477 42.0305 122.433 42.5311 122.738 43.045C123.569 41.9507 123.856 40.6659 124.285 39.452C124.52 38.7874 124.772 38.1184 124.785 37.3874C124.794 36.8557 125.143 36.5722 125.643 36.6032C126.129 36.6342 126.226 37.0285 126.208 37.4494C126.155 38.8184 126.093 40.1874 126.054 41.5564C126.036 42.1545 126.093 42.7438 126.394 43.3862C127.199 42.5754 127.53 41.5431 128.123 40.688C128.781 39.7399 128.622 38.6456 128.852 37.6222C128.91 37.3563 128.989 37.0905 129.029 36.8247C129.078 36.4924 129.162 36.2487 129.573 36.262C129.962 36.2753 130.081 36.5146 130.156 36.8291C130.426 37.9633 130.262 39.1241 130.377 40.4931H130.391ZM117.924 36.9576C117.782 36.9443 117.499 37.2323 117.344 37.6089C116.699 39.164 116.571 40.7811 116.823 42.4336C116.854 42.6419 116.982 42.8368 117.079 43.0318C117.274 43.4083 117.468 43.4969 117.804 43.1159C118.127 42.7571 118.286 42.3229 118.485 41.9109C118.746 41.3881 118.834 40.9229 118.198 40.4444C117.309 39.7754 117.389 38.5792 118.246 37.8658C118.392 37.7462 118.516 37.6886 118.352 37.5114C118.189 37.3342 118.162 37.0506 117.919 36.9576H117.924ZM143.981 48.4413C142.964 49.6774 142.04 50.9623 141.642 52.5572C141.553 52.9072 141.54 53.2882 141.81 53.4566C142.141 53.6648 142.314 53.2439 142.473 53.0357C143.508 51.6977 143.817 50.1027 143.976 48.4413H143.981ZM139.175 29.5765C138.711 30.5822 138.587 31.6012 138.583 32.6423C138.583 32.8196 138.494 33.0677 138.764 33.112C139.073 33.1651 139.095 32.8993 139.14 32.6867C139.263 32.0974 139.405 31.5126 139.484 30.9189C139.546 30.467 139.511 30.0018 139.175 29.5765ZM118.569 38.5836C118.286 39.3456 118.326 39.5273 118.901 40.0766C118.918 39.5361 118.971 39.0399 118.569 38.5836Z" fill="#D1AD6E"/>
<path d="M29.4397 29.749C29.3822 33.8029 29.1832 37.8568 29.307 41.9151C29.307 42.0524 29.3026 42.1897 29.307 42.3271C29.338 42.9296 29.1788 43.6518 29.4573 44.0993C29.8552 44.7372 30.4963 43.9796 31.0533 44.0107C32.0303 44.0638 33.025 43.8866 33.9711 44.2942C34.148 44.3695 34.3734 44.4227 34.3336 44.6664C34.2894 44.9366 34.0463 44.8702 33.8694 44.8524C32.5874 44.7284 31.3805 45.1227 30.1559 45.3885C29.6165 45.5037 29.3159 45.7341 29.4397 46.3366C29.5192 46.7221 29.4441 47.0632 28.9976 47.1696C28.5732 47.267 28.3035 47.0632 28.193 46.6689C28.1134 46.3809 27.994 46.1993 27.6845 46.3677C26.4334 47.0411 25.1558 47.6968 24.3644 48.9506C24.2318 49.1588 23.94 49.4114 24.1301 49.6772C24.2716 49.8766 24.5899 49.7924 24.8286 49.7702C26.5174 49.6196 28.0869 49.0392 29.559 48.2683C32.5653 46.6911 35.3637 44.8037 37.8041 42.4068C39.9173 40.3334 41.7343 38.0694 42.7113 35.2428C44.3647 30.4446 42.4372 24.7293 36.5883 23.3958C32.9499 22.5673 29.4927 23.0325 26.0576 24.2819C23.4626 25.2256 21.1725 26.6167 19.4616 28.8054C18.2459 30.3604 17.3307 32.0617 17.7507 34.1706C17.9806 35.327 18.657 36.0048 19.8374 36.2131C19.9479 36.2308 20.0673 36.2219 20.0805 36.3637C20.0982 36.5454 19.9523 36.5852 19.8197 36.6118C19.2273 36.7314 18.71 36.5055 18.3166 36.1245C17.0876 34.946 16.5747 33.5105 16.9461 31.8092C17.6932 28.4155 19.8993 26.1294 22.7773 24.4812C26.5263 22.3325 30.5935 21.3755 34.9172 21.9736C38.927 22.5318 42.4637 24.8534 43.9403 29.1819C45.3771 33.3953 44.2144 37.0992 41.6989 40.5017C38.7148 44.5379 34.789 47.462 30.3327 49.6728C29.0197 50.324 27.605 50.7937 26.124 50.9886C25.6863 51.0462 25.253 51.0595 24.8198 50.962C22.8967 50.5411 22.406 49.0481 23.719 47.5905C24.6518 46.5582 25.8233 45.867 27.0789 45.3043C27.4723 45.1271 27.8481 44.9721 27.7907 44.3695C27.3397 39.8017 27.5387 35.2295 27.6713 30.6573C27.7111 29.2351 27.7509 27.8085 27.8039 26.3863C27.8172 26.0319 27.8968 25.6819 27.9277 25.3275C27.9675 24.8888 28.1355 24.592 28.6262 24.5876C29.1656 24.5876 29.3424 24.9464 29.3645 25.3895C29.4087 26.3465 29.422 27.3079 29.4397 28.2648C29.4485 28.7566 29.4397 29.2528 29.4397 29.7446V29.749Z" fill="#D1AD6E"/>
<path d="M111.572 37.166C112.337 35.2565 112.735 33.4621 112.894 31.6456C113.088 29.4393 113.203 27.2063 112.469 25.0443C111.97 23.5822 111.43 22.129 109.927 21.3936C108.557 20.7246 107.372 21.2961 106.293 22.1468C103.91 24.0253 102.513 26.5595 101.576 29.3861C100.343 33.121 100.25 36.9267 101.147 40.7281C101.749 43.2623 102.77 45.606 105.17 47.037C106.651 47.9187 109.299 47.7636 110.621 46.6914C110.683 46.6427 110.767 46.5895 110.785 46.5231C110.838 46.306 110.427 45.9914 110.763 45.8895C111.536 45.6591 112.124 45.0655 112.894 44.8617C113.132 44.7996 113.42 44.8306 113.517 45.1186C113.619 45.411 113.451 45.6459 113.247 45.8452C112.536 46.5364 111.727 47.0902 110.856 47.5598C109.406 48.344 107.88 48.725 106.209 48.5212C103.902 48.2421 102.275 46.9307 101.099 45.0699C99.0297 41.7958 98.5655 38.1097 98.7246 34.3393C98.8484 31.3355 99.5558 28.4424 101.081 25.8063C102.474 23.4006 104.171 21.3005 106.93 20.3569C110.126 19.2625 112.929 20.7512 113.911 23.9943C114.927 27.3481 114.702 30.6931 114.03 34.0558C113.787 35.2653 113.486 36.4527 112.973 37.578C112.624 38.34 112.063 38.7344 111.236 38.6812C110.414 38.628 110.21 37.9856 110.038 37.3255C109.68 35.9609 109.64 34.5697 109.658 33.1697C109.658 32.8906 109.644 32.607 110.016 32.5362C110.383 32.4653 110.546 32.6469 110.674 32.9836C110.957 33.7412 110.997 34.5343 111.09 35.3185C111.156 35.8989 111.333 36.4349 111.567 37.166H111.572Z" fill="#D1AD6E"/>
<path d="M64.4917 42.2873C63.3113 41.6006 62.0071 41.3038 61.1229 40.2094C60.6057 41.1708 60.1813 42.1145 59.5225 42.9076C58.5057 44.1348 57.1794 44.343 56.0698 43.4658C55.6188 43.107 55.473 42.5664 55.1547 42.0171C54.8806 42.4601 54.6507 42.8677 54.381 43.2532C54.0494 43.7272 53.6029 44.0595 52.9972 43.931C52.4137 43.807 52.0865 43.3772 51.9185 42.8145C51.7771 42.3493 51.6223 41.8886 51.4366 41.3126C51.083 41.955 50.8 42.4778 50.5038 42.9962C50.159 43.5987 49.7081 44.0595 48.9432 43.9798C48.2138 43.9 47.8778 43.3683 47.6479 42.7569C47.4578 42.2474 47.3075 41.7247 47.1218 41.1443C46.6444 41.7424 46.578 42.5 46.2774 43.1468C45.9945 43.7627 45.6452 44.1968 44.9511 44.1392C44.2703 44.0817 44.0758 43.5146 44.0493 42.9475C43.9608 40.8076 44.341 38.7607 45.4861 36.9176C45.8928 36.2575 46.578 35.9651 47.3296 36.1512C48.0723 36.3328 48.059 37.0417 48.2315 37.6575C48.7089 39.3721 48.2713 41.2152 49.014 42.8766C49.0714 43.0006 49.1201 43.1247 49.2173 43.3506C50.128 42.6107 50.4817 41.5829 50.9946 40.6525C51.6356 39.4917 51.2863 38.2379 51.4278 37.0328C51.5074 36.3815 51.4455 35.717 51.5118 35.0613C51.5693 34.4764 51.4145 34.2461 50.8 34.379C50.2695 34.4942 49.7213 34.5518 49.182 34.6359C48.9653 34.6714 48.7355 34.7157 48.5498 34.5651C48.426 34.4676 48.2757 34.3435 48.2447 34.2062C48.1917 34.0024 48.4304 33.9847 48.5542 33.8916C49.266 33.3688 50.1236 33.515 50.915 33.4087C51.5427 33.3245 51.8213 33.134 51.8743 32.4739C51.9627 31.4106 52.2059 30.3738 52.7806 29.4435C53.0238 29.0491 53.3288 28.7346 53.8328 28.8055C54.35 28.8764 54.4119 29.3504 54.5136 29.7314C54.7568 30.6352 54.549 31.5435 54.35 32.4074C54.1865 33.1163 54.4782 33.2625 55.0441 33.3467C55.6365 33.4353 56.2378 33.5017 56.7595 33.8562C57.0114 34.029 57.2237 34.2461 57.091 34.5207C56.9496 34.822 56.7197 34.4764 56.5251 34.4853C56.419 34.4897 56.3129 34.441 56.2024 34.4321C55.4509 34.3701 54.4296 33.8296 54.0096 34.3125C53.3995 35.017 52.8558 35.9695 52.8381 37.0239C52.8027 38.7474 52.7055 40.4753 52.9221 42.1943C52.9398 42.3316 52.9442 42.469 52.9796 42.6019C53.0503 42.8677 53.1652 43.2044 53.3995 43.2665C53.7134 43.3506 53.793 42.9696 53.9389 42.7481C54.6551 41.6538 55.0176 40.4443 55.2608 39.1683C55.4862 37.9765 55.9283 36.8423 57.0733 36.191C58.1874 35.5575 59.0893 36.0625 59.16 37.3562C59.2042 38.1936 59.0893 38.9911 58.5897 39.6999C58.2979 40.1164 57.931 40.4132 57.4447 40.586C57.1131 40.7012 56.5296 40.4708 56.5826 41.1708C56.6445 41.955 56.5561 42.8013 57.3298 43.3196C57.5685 43.4791 57.8603 43.3994 58.0946 43.2089C59.496 42.0569 60.6012 40.6835 60.8356 38.836C61.0522 37.148 62.4271 36.0094 64.107 36.3151C64.7569 36.4303 65.1592 36.7936 65.3007 37.4847C65.4422 38.1803 65.3714 38.8449 65.2388 39.5183C65.1769 39.8284 64.9514 39.9746 64.6376 39.9525C64.306 39.9303 64.2618 39.6866 64.2662 39.4208C64.2795 39.0088 64.2927 38.6012 64.3104 38.1892C64.3325 37.6752 64.1513 37.1834 63.6915 37.0417C63.3113 36.9265 63.0593 37.3784 62.8427 37.6885C61.9894 38.9335 62.2326 40.0367 63.5191 40.781C65.535 41.9462 65.6942 41.9329 67.604 40.4265C68.1213 40.0189 68.5855 39.5582 68.8949 38.9645C68.9701 38.8227 69.032 38.6233 69.2398 38.6987C69.4829 38.7828 69.4387 39.0132 69.3901 39.1904C69.2353 39.7442 68.8463 40.143 68.413 40.4708C67.8958 40.8651 67.3343 41.2107 66.7817 41.5607C66.3308 41.8443 65.7561 42.0259 66.0965 42.7658C66.1407 42.8588 66.0655 43.0361 65.9948 43.1468C65.3759 44.1171 64.5093 44.7329 63.3511 44.8791C63.0593 44.919 62.7233 44.9323 62.542 44.6133C62.3608 44.2943 62.5641 44.0595 62.7277 43.7937C63.1256 43.138 63.8108 42.819 64.4784 42.2918L64.4917 42.2873ZM45.7336 42.305C46.3614 41.2373 46.8389 40.1075 47.281 38.9512C47.5816 38.167 47.6037 37.5999 46.9538 36.9442C46.0652 38.6499 45.7248 40.4265 45.7336 42.305ZM58.1388 37.2765C58.1299 37.1258 58.2184 36.8777 57.9973 36.798C57.7718 36.7138 57.6834 36.9486 57.5906 37.1126C57.1441 37.9012 56.7816 38.7252 56.6931 39.6423C56.6799 39.793 56.5694 39.9791 56.786 40.0632C56.9717 40.1341 57.0866 39.9968 57.1971 39.8727C57.847 39.1417 58.0548 38.2468 58.1344 37.2765H58.1388ZM53.7886 29.5055C53.2315 30.6574 53.3465 31.7739 53.1476 32.8327C53.121 32.9701 53.1741 33.1119 53.3465 33.1252C53.5631 33.1429 53.74 33.0454 53.7621 32.8239C53.8637 31.7694 54.3677 30.7194 53.7886 29.5055ZM64.8586 42.7392C64.0673 43.1734 63.4793 43.5013 63.2494 44.4228C63.9788 43.9798 64.5978 43.7006 64.8586 42.7392Z" fill="#D1AD6E"/>
<path d="M82.9684 50.1157C77.3715 50.1157 73.0877 45.2777 73.8392 39.8593C74.0293 38.4814 74.7411 37.2852 75.5059 36.151C75.8552 35.637 75.8331 35.2738 75.4838 34.7598C74.2327 32.9345 73.4369 30.9806 73.8038 28.6812C74.2725 25.7306 75.7888 23.4445 78.3353 22.0178C81.5361 20.2235 84.865 20.2767 87.9553 22.3457C90.7316 24.2065 92.1419 26.9091 92.049 30.2851C92.0048 31.8889 91.2444 33.2889 90.3779 34.5915C89.9535 35.2339 89.9403 35.6946 90.3912 36.3282C94.3435 41.8884 90.6122 48.0733 85.6962 49.7126C84.8031 50.0094 83.8394 50.1911 82.9684 50.1157ZM91.4832 41.1441C91.5672 40.1517 91.2533 39.2434 90.8377 38.3795C89.0472 34.6668 86.1825 31.818 83.2514 29.0312C82.9817 28.7743 82.796 28.7433 82.5042 29.018C80.0329 31.3439 77.681 33.7807 75.8596 36.6649C75.1213 37.839 74.4272 39.0573 74.3167 40.4928C73.9276 45.4859 78.5563 50.1202 83.9057 49.4911C87.8271 49.0303 91.4434 45.3397 91.4832 41.1397V41.1441ZM74.3034 29.6116C74.2106 31.5788 75.0682 33.063 76.0232 34.5161C76.2751 34.906 76.4034 34.8396 76.6509 34.5073C78.2867 32.3408 80.1965 30.4268 82.155 28.5528C82.6988 28.0344 83.0259 28.0388 83.5697 28.5395C85.5591 30.3781 87.4336 32.3186 89.1091 34.4453C89.2329 34.6048 89.3346 35.101 89.6573 34.6269C90.6211 33.218 91.4743 31.7294 91.4787 29.9705C91.4876 24.4236 85.9614 19.909 80.223 21.8096C76.8454 22.9261 74.3432 26.2268 74.3034 29.6116Z" fill="#D1AD6E"/>
<path d="M117.922 36.9572C118.165 37.0503 118.196 37.3382 118.355 37.511C118.518 37.6883 118.395 37.7459 118.249 37.8655C117.391 38.5788 117.312 39.775 118.2 40.444C118.837 40.9225 118.744 41.3832 118.488 41.9105C118.284 42.3181 118.125 42.7523 117.807 43.1155C117.471 43.4921 117.276 43.408 117.082 43.0314C116.98 42.8409 116.856 42.6415 116.825 42.4333C116.573 40.7807 116.701 39.1636 117.347 37.6085C117.502 37.2319 117.785 36.9439 117.926 36.9572H117.922Z" fill="#502C14"/>
<path d="M143.978 48.4409C143.819 50.1024 143.509 51.6973 142.475 53.0353C142.311 53.2436 142.143 53.6644 141.812 53.4562C141.542 53.2879 141.56 52.9068 141.644 52.5568C142.037 50.9619 142.961 49.6726 143.982 48.4409H143.978Z" fill="#502C14"/>
<path d="M139.173 29.5762C139.514 30.0015 139.545 30.4667 139.483 30.9186C139.403 31.5123 139.262 32.1015 139.138 32.6863C139.094 32.8946 139.072 33.1648 138.762 33.1117C138.493 33.0629 138.577 32.8148 138.581 32.642C138.586 31.6009 138.709 30.5819 139.173 29.5762Z" fill="#502C14"/>
<path d="M118.568 38.5835C118.97 39.0351 118.917 39.5354 118.899 40.0755C118.325 39.5265 118.285 39.3494 118.568 38.5835Z" fill="#502C14"/>
<path d="M45.7352 42.3049C45.7263 40.4264 46.0667 38.6454 46.9553 36.9441C47.6052 37.5998 47.5831 38.1669 47.2825 38.9511C46.8404 40.1118 46.3673 41.2372 45.7352 42.3049Z" fill="#502C14"/>
<path d="M58.1411 37.2764C58.0571 38.2511 57.8537 39.1416 57.2038 39.8726C57.0933 39.9967 56.9784 40.134 56.7927 40.0631C56.5716 39.9789 56.6866 39.7929 56.6998 39.6422C56.7883 38.7251 57.1464 37.9011 57.5973 37.1124C57.6901 36.9485 57.7741 36.7181 58.004 36.7979C58.2251 36.8776 58.1366 37.1257 58.1455 37.2764H58.1411Z" fill="#502C14"/>
<path d="M53.7896 29.5052C54.3687 30.7192 53.8647 31.7692 53.7631 32.8237C53.741 33.0452 53.5685 33.1426 53.3475 33.1249C53.1751 33.1116 53.122 32.9699 53.1485 32.8325C53.3475 31.7736 53.2325 30.6572 53.7896 29.5052Z" fill="#502C14"/>
<path d="M64.8568 42.7393C64.5962 43.7 63.9777 43.9789 63.2488 44.4216C63.4785 43.5008 64.066 43.1732 64.8568 42.7393Z" fill="#502C14"/>
<path d="M91.4821 41.1442C91.4423 45.3442 87.826 49.0348 83.9046 49.4956C78.5553 50.1247 73.9221 45.486 74.3156 40.4973C74.4261 39.0618 75.1158 37.839 75.8585 36.6694C77.6799 33.7852 80.0319 31.3484 82.5032 29.0224C82.795 28.7478 82.9806 28.7788 83.2503 29.0357C86.1814 31.8269 89.0506 34.6713 90.8366 38.384C91.2522 39.2435 91.5661 40.1562 91.4821 41.1486V41.1442ZM82.5695 41.9771C80.6862 40.4663 79.2096 38.8403 77.8523 37.0903C77.702 36.8954 77.5606 36.4789 77.2511 36.7004C76.8974 36.9485 77.2378 37.2188 77.4103 37.4536C78.7542 39.2878 80.3369 40.9005 82.0699 42.3625C82.4192 42.6594 82.5828 42.9385 82.5739 43.3948C82.5474 44.6265 82.5562 45.8582 82.5739 47.0898C82.5739 47.3867 82.4059 47.8917 82.8436 47.9095C83.3034 47.9272 83.1486 47.4221 83.1531 47.1253C83.1707 45.9202 83.1796 44.7151 83.1531 43.51C83.1398 43.0094 83.2724 42.6594 83.6836 42.3227C85.4829 40.8517 87.0479 39.1505 88.4007 37.2587C88.5599 37.0371 88.8428 36.7757 88.5775 36.5542C88.1973 36.2396 88.0559 36.7492 87.9277 36.9308C87.1584 37.9985 86.314 38.991 85.4033 39.9346C84.7402 40.6214 84.0549 41.2948 83.1663 41.9283C83.1663 41.5429 83.1973 41.3169 83.1575 41.1087C83.1 40.7941 83.3829 40.2403 82.8878 40.2226C82.3484 40.2005 82.6358 40.7631 82.5827 41.0688C82.5385 41.3036 82.5739 41.5562 82.5739 41.9859L82.5695 41.9771ZM84.3025 36.2662C84.2848 35.451 83.6349 34.8441 82.8082 34.8706C82.0301 34.8972 81.42 35.5219 81.42 36.2972C81.42 37.0814 82.1009 37.7549 82.879 37.746C83.6791 37.7371 84.3158 37.0726 84.3025 36.2618V36.2662Z" fill="#5A3C2F"/>
<path d="M74.3011 29.6116C74.3409 26.2268 76.8431 22.9261 80.2207 21.8096C85.9635 19.9089 91.4897 24.4191 91.4764 29.9705C91.4764 31.7294 90.6232 33.218 89.655 34.6269C89.3278 35.1009 89.2306 34.6003 89.1068 34.4452C87.4268 32.3186 85.5568 30.3781 83.5673 28.5394C83.0236 28.0388 82.6964 28.0344 82.1526 28.5527C80.1942 30.4224 78.2843 32.3363 76.6486 34.5073C76.3966 34.8395 76.2728 34.906 76.0208 34.5161C75.0703 33.0629 74.2082 31.5832 74.3011 29.6116Z" fill="#5A3C2F"/>
<path d="M82.5692 41.9769C82.5692 41.5472 82.5338 41.2947 82.578 41.0598C82.6311 40.7541 82.3437 40.1915 82.8831 40.2136C83.3826 40.2313 83.0997 40.7852 83.1527 41.0997C83.1925 41.3124 83.1616 41.5339 83.1616 41.9193C84.0502 41.2858 84.7354 40.6124 85.3986 39.9256C86.3093 38.9864 87.1581 37.9895 87.9229 36.9218C88.0555 36.7402 88.1926 36.2307 88.5728 36.5452C88.838 36.7667 88.5551 37.0281 88.396 37.2497C87.0432 39.1415 85.4781 40.8427 83.6788 42.3137C83.2677 42.6504 83.135 42.9959 83.1483 43.501C83.1748 44.7061 83.166 45.9112 83.1483 47.1163C83.1483 47.4087 83.2986 47.9182 82.8388 47.9005C82.4012 47.8827 82.5736 47.3777 82.5692 47.0808C82.5515 45.8492 82.5426 44.6175 82.5692 43.3858C82.578 42.9295 82.4189 42.6504 82.0652 42.3535C80.3322 40.8959 78.7495 39.2832 77.4055 37.4446C77.2331 37.2098 76.8927 36.944 77.2464 36.6914C77.5558 36.4743 77.6929 36.8864 77.8476 37.0813C79.2004 38.8313 80.677 40.4573 82.5647 41.9681L82.5692 41.9769Z" fill="#D1AD6E"/>
<path d="M84.3027 36.2661C84.3204 37.0768 83.6838 37.7414 82.8792 37.7503C82.0967 37.7591 81.4203 37.0857 81.4203 36.3015C81.4203 35.5262 82.0304 34.9015 82.8085 34.8749C83.6396 34.8483 84.285 35.4509 84.3027 36.2705V36.2661ZM82.8085 35.4331C82.3664 35.5217 82.0215 35.7831 82.0171 36.2794C82.0083 36.8154 82.3531 37.1654 82.8836 37.1566C83.3567 37.1477 83.7103 36.8553 83.7103 36.3325C83.7103 35.7787 83.3832 35.504 82.8085 35.4331Z" fill="#D1AD6E"/>
<path d="M82.8078 35.4331C83.3821 35.504 83.7134 35.7785 83.709 36.3319C83.709 36.8543 83.3556 37.1464 82.8829 37.1553C82.3483 37.1642 82.0082 36.8144 82.017 36.2787C82.0258 35.7829 82.3704 35.5217 82.8078 35.4331Z" fill="#502C14"/>
</svg>
